<svg width="153" height="42" viewBox="0 0 153 42" fill="none" xmlns="http://www.w3.org/2000/svg">
<g clip-path="url(#clip0_1391_335)">
<path fill-rule="evenodd" clip-rule="evenodd" d="M151.54 23.3958V41.2992H151.241C142.91 30.8424 132.645 17.6528 130.907 15.1573H130.829V27.4355C130.829 38.8429 131.089 40.7049 131.342 40.7049V40.8637H127.991V40.7049C128.257 40.7049 128.752 38.8429 128.752 27.4355V9.45361H129.052C137.384 19.9104 147.649 33.1 149.386 35.5955H149.465V23.3958C149.465 11.9883 149.218 10.127 148.951 10.127V9.9689H152.302V10.127C152.036 10.127 151.54 11.9883 151.54 23.3958ZM110.605 40.8632V40.7049C111.008 40.5145 110.51 38.8829 107.194 30.4485C107.194 30.4485 101.746 16.1527 101.273 14.6477H101.236C100.723 16.1527 94.9981 30.4485 94.9981 30.4485C91.6034 38.8829 90.9872 40.4936 91.4057 40.7049V40.8632H88.0215V40.7049C88.8591 40.7049 101.134 9.45991 101.134 9.45991H101.535C101.535 9.45991 113.256 40.7049 114.093 40.7049V40.8632H110.605ZM70.7762 40.8632V40.7049C71.5943 40.7049 69.1183 18.6475 69.0003 16.1128H68.9216C67.7373 19.2811 66.039 22.9239 63.9075 27.399C62.4075 30.5274 60.3549 35.3989 57.7496 40.8632H57.0391C54.4339 35.3989 52.3813 30.5274 50.8813 27.399C48.7498 22.9239 47.0514 19.2811 45.8672 16.1128H45.7891C45.6702 18.6475 43.1943 40.7049 44.0131 40.7049V40.8632H40.6673V40.7049C41.7677 40.7049 44.5818 9.45991 44.5818 9.45991H44.8807C56.0918 32.8249 56.2888 34.29 57.3549 36.7051H57.4336C58.4997 34.29 58.6967 32.8249 69.9078 9.45991H70.2068C70.2068 9.45991 73.0209 40.7049 74.1212 40.7049V40.8632H70.7762ZM23.2827 40.8632V40.7049C23.6846 40.5145 23.1871 38.8829 19.8712 30.4485C19.8712 30.4485 14.424 16.1527 13.9496 14.6477H13.9126C13.3993 16.1527 7.67516 30.4485 7.67516 30.4485C4.2805 38.8829 3.66359 40.4936 4.0828 40.7049V40.8632H0.699219V40.7049C1.53621 40.7049 13.8106 9.45991 13.8106 9.45991H14.2115C14.2115 9.45991 25.9332 40.7049 26.7702 40.7049V40.8632H23.2827ZM9.28754 0.699219H18.722V2.7657H9.28754V0.699219Z" fill="black"/>
</g>
<defs>
<clipPath id="clip0_1391_335">
<rect width="153" height="42" fill="white"/>
</clipPath>
</defs>
</svg>
